<svg xmlns="http://www.w3.org/2000/svg" width="39.693" height="30.295" viewBox="0 0 39.693 30.295">
  <g id="Group_45" data-name="Group 45" transform="translate(-288.943 -34.307)" opacity="0.2">
    <path id="Path_4" data-name="Path 4" d="M326.776,39.091H290.8c-1.085,0-1.86-1-1.86-2.392s.775-2.392,1.86-2.392h35.973c1.085,0,1.86,1,1.86,2.392s-.775,2.392-1.86,2.392" fill="#fff" fill-rule="evenodd"/>
    <path id="Path_5" data-name="Path 5" d="M301.967,51.846h-3.721c-1.085,0-1.861-1-1.861-2.391s.776-2.392,1.861-2.392h28.53c1.085,0,1.86,1,1.86,2.392s-.775,2.391-1.86,2.391H301.967Z" fill="#fff" fill-rule="evenodd"/>
    <path id="Path_6" data-name="Path 6" d="M290.8,59.819h35.973c1.085,0,1.86,1,1.86,2.391s-.775,2.392-1.86,2.392H290.8c-1.085,0-1.86-1-1.86-2.392s.775-2.391,1.86-2.391" fill="#fff" fill-rule="evenodd"/>
  </g>
</svg>
