<svg xmlns="http://www.w3.org/2000/svg" width="18.72" height="19.946" viewBox="0 0 18.72 19.946">
  <g id="Group_49" data-name="Group 49" transform="translate(-61.83 -250.36)">
    <path id="Path_8" data-name="Path 8" d="M69.662,252.458l-.476.018-.464.067-.452.091-.435.133-.423.163-.406.2-.388.223-.37.26-.352.278-.329.315-.294.338-.282.351-.247.381-.223.4-.188.423-.165.435-.129.454-.088.459-.053.478-.023.49.023.483.053.484.088.46.129.447.165.435.188.418.223.4.247.381.282.363.294.339.329.308.352.284.37.26.388.224.406.2.423.163.435.133.452.09.464.061.476.018.47-.018.464-.061.453-.09.44-.133.418-.163.411-.2.388-.224.37-.26.347-.284.329-.308.3-.339.282-.363.247-.381.217-.4.194-.418.159-.435.129-.447.094-.46.053-.484.024-.483-.024-.49-.053-.478-.094-.459-.129-.454-.159-.435-.194-.423-.217-.4-.247-.381-.282-.351-.3-.338-.329-.315-.347-.278-.37-.26-.388-.223-.411-.2-.418-.163-.44-.133-.453-.091-.464-.067-.47-.018Zm0-2.1.529.018.529.055.517.091.5.121.494.157.476.193.464.218.441.248.423.278.405.3.388.327.364.356.347.369.323.4.288.424.276.435.235.459.217.466.183.5.152.5.118.52.088.526.053.545.018.55-.012.514-.047.513-.082.5-.106.5-.147.49-.165.478-.2.465-.229.453-.253.436-.288.429-.306.4,4.607,4.928.123.151.088.163.053.169.024.176v.181l-.035.175-.065.17-.088.163-.124.139-.117.1-.135.078-.147.067-.147.036-.159.012-.164-.012-.159-.042-.153-.067-.135-.09-.123-.115-4.654-4.97-.4.272-.417.242-.429.218-.435.193-.447.157-.464.139-.458.1-.47.072-.482.049-.482.018-.535-.018-.528-.061-.517-.084-.5-.127-.493-.157-.471-.188-.464-.218-.44-.253-.429-.273-.406-.308-.387-.32-.365-.357-.341-.375-.323-.4-.294-.417-.264-.441-.247-.454-.211-.478-.182-.483-.153-.508-.118-.514L61.9,259.5l-.053-.538-.017-.55.017-.55.053-.545.094-.526.118-.52.153-.5.182-.5.211-.466.247-.459.264-.435.294-.424.323-.4.341-.369.365-.356.387-.327.406-.3.429-.278.44-.248.464-.218.471-.193.493-.157.5-.121.517-.091.528-.055.535-.018Z" fill="#fff" fill-rule="evenodd"/>
  </g>
</svg>
